<?xml version="1.0" standalone="no"?><!DOCTYPE svg PUBLIC "-//W3C//DTD SVG 1.1//EN" "http://www.w3.org/Graphics/SVG/1.1/DTD/svg11.dtd"><svg t="1595828315390" class="icon" viewBox="0 0 1024 1024" version="1.1" xmlns="http://www.w3.org/2000/svg" p-id="13636" xmlns:xlink="http://www.w3.org/1999/xlink" width="200" height="200"><defs><style type="text/css"></style></defs><path d="M861.4 202.1H162.6c-35.9 0-65.1 30.2-65.1 67.3v485.1c0 37.1 29.2 67.3 65.1 67.3h698.9c35.9 0 65.1-30.2 65.1-67.3V269.4c-0.1-37.1-29.3-67.3-65.2-67.3zM303.9 387.6c33.3-34.2 88-34.9 122.2-1.6l1.6 1.6c15.3 16.6 25.3 38.7 25.3 63.7 0 23.8-9 46.7-25.3 64-34.5 35.1-89.6 35.1-123.8 0-33.7-35.9-33.7-91.8 0-127.7z m180.9 273.5H246.5V645c0.1-9.5 1.9-18.8 5.2-27.7l0.2-0.4c4.2-9.5 9.3-17.3 15.5-23.7 13.2-13.8 31.5-21.6 50.6-21.6h95.6c9.2 0 18.2 1.7 26.7 5.2l0.2 0.1c8.7 4 16.7 9.5 23.4 16.2l0.2 0.2c6.5 6.9 11.6 15 15.1 23.9 3.7 8.9 5.5 18.3 5.5 27.9v16h0.1z m236.1-57.4H590.2c-9 0-16.3-7.9-16.3-17.4 0-9.5 7.3-17 16.3-17h130.7c9.4 0 16.7 7.5 16.7 17-0.1 9.5-7.3 17.4-16.7 17.4z m72.3-93.1h-203c-9 0-16.3-7.9-16.3-17.4 0-9.5 7.3-17 16.3-17h203c9.4 0 16.7 7.5 16.7 17s-7.3 17.4-16.7 17.4z m0-93h-203c-9 0-16.3-7.9-16.3-17.4 0-9.5 7.3-17 16.3-17h203c9.4 0 16.7 7.5 16.7 17s-7.3 17.4-16.7 17.4z" fill="#1296db" p-id="13637"></path></svg>