<svg t="1592362424292" class="icon" viewBox="0 0 1024 1024" version="1.1" xmlns="http://www.w3.org/2000/svg" p-id="2302" width="200" height="200"><path d="M627.2 486.4c15.644444 0 28.444444-12.8 28.444444-29.866667 0-15.644444-12.8-28.444444-28.444444-29.866666h-62.577778l59.733334-59.733334c11.377778-11.377778 11.377778-29.866667 0-41.244444-11.377778-11.377778-29.866667-11.377778-41.244445 0L510.577778 398.222222l-73.955556-71.111111c-11.377778-11.377778-29.866667-11.377778-41.244444 0-11.377778 11.377778-11.377778 29.866667 0 41.244445l59.733333 59.733333h-62.577778c-15.644444 0-29.866667 12.8-29.866666 29.866667 0 15.644444 12.8 29.866667 29.866666 29.866666h88.177778v58.311111h-88.177778c-15.644444 0-29.866667 12.8-29.866666 29.866667 0 15.644444 12.8 29.866667 29.866666 29.866667h88.177778V682.666667c0 15.644444 12.8 29.866667 29.866667 29.866666 15.644444 0 29.866667-12.8 29.866666-29.866666v-78.222223h88.177778c7.111111 0 15.644444-2.844444 21.333334-8.533333 5.688889-5.688889 8.533333-12.8 8.533333-21.333333 0-7.111111-2.844444-15.644444-8.533333-21.333334-5.688889-5.688889-12.8-8.533333-21.333334-8.533333H540.444444v-58.311111h86.755556z" p-id="2303" fill="#FF6D60"></path><path d="M918.755556 18.488889H102.4C54.044444 18.488889 14.222222 58.311111 14.222222 108.088889v109.511111H11.377778v68.266667H14.222222v457.955555H11.377778v68.266667H14.222222v109.511111C14.222222 969.955556 54.044444 1009.777778 102.4 1009.777778h814.933333c48.355556 0 88.177778-39.822222 88.177778-88.177778V108.088889c1.422222-49.777778-38.4-89.6-86.755555-89.6zM102.4 945.777778c-12.8 0-22.755556-9.955556-22.755556-22.755556v-109.511111h68.266667v-68.266667H81.066667V285.866667h68.266666v-68.266667H81.066667V108.088889c0-12.8 9.955556-22.755556 21.333333-22.755556h704v860.444445H102.4z m837.688889-22.755556c0 12.8-9.955556 22.755556-22.755556 22.755556h-42.666666V85.333333h42.666666c12.8 0 22.755556 9.955556 22.755556 22.755556v814.933333z" p-id="2304" fill="#FF6D60"></path></svg>