<svg t="1594094605732" class="icon" viewBox="0 0 1243 1024" version="1.1" xmlns="http://www.w3.org/2000/svg" p-id="11089" width="200" height="200"><path d="M1129.472 1012.150857a10.825143 10.825143 0 0 1-2.925714 7.460572 9.801143 9.801143 0 0 1-7.094857 3.145142H331.337143c-93.915429 0-170.715429-80.310857-171.154286-178.834285L159.451429 586.971429a17.92 17.92 0 0 0-17.408-18.285715H39.789714a38.912 38.912 0 0 1-35.620571-24.356571 42.203429 42.203429 0 0 1 6.948571-44.032L436.955429 13.750857a39.570286 39.570286 0 0 1 57.197714-0.804571c32.914286 35.547429 66.56 70.363429 100.059428 105.325714 31.817143 32.987429 63.634286 66.194286 94.939429 99.766857l1.024 1.170286 15.213714-15.945143c18.139429-19.017143 36.278857-38.326857 54.345143-57.490286l40.448-42.934857a37.961143 37.961143 0 0 1 27.574857-11.995428 38.034286 38.034286 0 0 1 27.501715 11.995428l375.954285 396.434286c11.044571 11.629714 14.336 29.257143 8.338286 44.397714a38.912 38.912 0 0 1-35.986286 25.161143H1113.965714c-12.946286 0-23.405714 10.971429-23.405714 24.502857v187.392c0 65.828571-51.053714 119.515429-113.810286 119.515429H701.44V818.468571h275.968a36.278857 36.278857 0 0 0 35.254857-37.083428v-187.245714c0-57.490286 43.300571-104.448 97.28-106.934858l-282.185143-297.691428-12.946285 13.458286a13928.594286 13928.594286 0 0 1-67.949715 71.972571c32.768 34.011429 63.634286 75.556571 66.56 131.437714 2.706286 56.246857-22.674286 105.837714-66.56 129.755429-36.571429 19.968-80.896 23.405714-118.491428 9.216a125.366857 125.366857 0 0 1-72.338286-71.387429 138.825143 138.825143 0 0 1 17.188571-131.730285c14.189714-19.748571 30.866286-35.84 46.957715-51.346286 4.973714-4.754286 9.874286-9.435429 14.628571-14.262857l-1.462857-1.462857c-31.012571-33.353143-62.537143-66.121143-93.988571-98.962286-24.283429-25.161143-48.566857-50.468571-72.704-75.995429L128.292571 487.131429h13.750858c52.224 0 95.012571 44.617143 95.232 99.474285l0.731428 256.950857c0.292571 53.833143 42.130286 97.572571 93.330286 97.572572h792.137143c3.291429 0 5.997714 2.779429 5.997714 6.290286v64.731428zM691.931429 332.653714c-6.070857 6.144-12.434286 12.288-18.944 18.505143a313.344 313.344 0 0 0-37.522286 40.301714 54.491429 54.491429 0 0 0-7.533714 50.614858c5.12 12.726857 14.189714 21.577143 26.916571 26.477714 17.334857 6.582857 38.838857 4.608 56.32-4.900572 24.649143-13.458286 25.161143-44.032 24.649143-53.028571-1.316571-28.891429-20.041143-53.613714-43.885714-78.043429z" fill="#418BCA" p-id="11090"></path></svg>