<?xml version="1.0" standalone="no"?><!DOCTYPE svg PUBLIC "-//W3C//DTD SVG 1.1//EN" "http://www.w3.org/Graphics/SVG/1.1/DTD/svg11.dtd"><svg t="1595841285045" class="icon" viewBox="0 0 1024 1024" version="1.1" xmlns="http://www.w3.org/2000/svg" p-id="23392" xmlns:xlink="http://www.w3.org/1999/xlink" width="200" height="200"><defs><style type="text/css"></style></defs><path d="M960 928 64 928C46.336 928 32 913.68 32 896 32 878.32 46.336 864 64 864L96 864 96 224C96 153.312 153.312 96 224 96L480 96C550.688 96 608 153.312 608 224L608 288 800 288C870.688 288 928 345.312 928 416L928 864 960 864C977.68 864 992 878.32 992 896 992 913.68 977.68 928 960 928ZM544 352 544 288 544 224C544 188.656 515.344 160 480 160L224 160C188.656 160 160 188.656 160 224L160 864 544 864 544 352ZM864 416C864 380.656 835.344 352 800 352L608 352 608 864 864 864 864 416ZM704 480 768 480C785.68 480 800 494.32 800 512 800 529.68 785.68 544 768 544L704 544C686.32 544 672 529.68 672 512 672 494.32 686.32 480 704 480ZM704 672 768 672C785.68 672 800 686.32 800 704 800 721.664 785.68 736 768 736L704 736C686.32 736 672 721.664 672 704 672 686.32 686.32 672 704 672ZM256 288 448 288C465.68 288 480 302.32 480 320 480 337.68 465.68 352 448 352L256 352C238.32 352 224 337.68 224 320 224 302.32 238.32 288 256 288ZM256 480 448 480C465.68 480 480 494.32 480 512 480 529.68 465.68 544 448 544L256 544C238.32 544 224 529.68 224 512 224 494.32 238.32 480 256 480ZM256 672 448 672C465.68 672 480 686.32 480 704 480 721.664 465.68 736 448 736L256 736C238.32 736 224 721.664 224 704 224 686.32 238.32 672 256 672Z" p-id="23393" fill="#1296db"></path></svg>