<svg t="1592186264972" class="icon" viewBox="0 0 1024 1024" version="1.1" xmlns="http://www.w3.org/2000/svg" p-id="3927" width="200" height="200"><path d="M947.2 260.022857L693.540571 10.24a38.765714 38.765714 0 0 0-20.48-10.24H72.484571C51.931429 0 36.571429 15.36 36.571429 35.84v951.442286c0 20.48 15.36 35.84 35.84 35.84h854.308571c20.48 0 35.84-15.36 35.84-35.84V285.549714c-5.12-5.12-10.24-15.36-15.36-25.6zM686.372571 84.845714l204.726858 196.534857h-204.8V84.845714z m209.846858 876.982857H98.011429V61.293714h537.234285v235.300572c0 20.48 15.36 35.84 35.84 35.84h230.180572v629.248h-5.12z" p-id="3928" fill="#418BCA"></path><path d="M790.528 782.921143a30.866286 30.866286 0 0 1-30.793143 30.866286H221.037714a30.866286 30.866286 0 0 1 0-61.732572h538.697143c16.969143 0 30.793143 13.897143 30.793143 30.866286z m0-222.061714a30.866286 30.866286 0 0 1-30.793143 30.866285H221.037714a30.866286 30.866286 0 0 1-30.866285-30.866285c0-17.042286 13.824-30.866286 30.866285-32.914286h538.697143a34.157714 34.157714 0 0 1 30.793143 32.914286z m-259.072-228.205715a30.866286 30.866286 0 0 1-30.793143 30.866286H221.037714a30.866286 30.866286 0 0 1 0-61.732571h279.625143c17.042286 0 30.793143 13.824 30.793143 30.866285z" p-id="3929" fill="#418BCA"></path></svg>