<svg t="1592362576018" class="icon" viewBox="0 0 1024 1024" version="1.1" xmlns="http://www.w3.org/2000/svg" p-id="6263" width="200" height="200"><path d="M972.8 64H51.2c-25.6 0-51.2 25.6-51.2 51.2V908.8c0 25.6 25.6 51.2 51.2 51.2h921.6c25.6 0 51.2-25.6 51.2-51.2v-704-89.6c0-25.6-25.6-51.2-51.2-51.2zM620.8 384h166.4c25.6 0 44.8 19.2 44.8 44.8s-19.2 44.8-44.8 44.8H620.8c-25.6 0-44.8-19.2-44.8-44.8s19.2-44.8 44.8-44.8zM275.2 275.2c70.4 0 121.6 57.6 121.6 121.6 0 70.4-57.6 121.6-121.6 121.6s-121.6-44.8-121.6-115.2 51.2-128 121.6-128z m204.8 441.6c0 12.8-12.8 19.2-25.6 19.2H96c-12.8 0-25.6-6.4-25.6-19.2V704c0-19.2 6.4-44.8 19.2-64 12.8-19.2 25.6-38.4 44.8-51.2s38.4-25.6 64-32c25.6-6.4 51.2-12.8 76.8-12.8 25.6 0 51.2 6.4 76.8 12.8 25.6 6.4 44.8 19.2 64 32 25.6 19.2 38.4 32 51.2 51.2 12.8 19.2 19.2 38.4 19.2 64v12.8z m435.2 12.8H620.8c-25.6 0-44.8-19.2-44.8-44.8s19.2-44.8 44.8-44.8h294.4c25.6 0 44.8 19.2 44.8 44.8s-19.2 44.8-44.8 44.8z" p-id="6264" fill="#418BCA"></path></svg>