<?xml version="1.0" standalone="no"?><!DOCTYPE svg PUBLIC "-//W3C//DTD SVG 1.1//EN" "http://www.w3.org/Graphics/SVG/1.1/DTD/svg11.dtd"><svg t="1595517058241" class="icon" viewBox="0 0 1024 1024" version="1.1" xmlns="http://www.w3.org/2000/svg" p-id="699" xmlns:xlink="http://www.w3.org/1999/xlink" width="200" height="200"><defs><style type="text/css"></style></defs><path d="M699.897953 290.563441l-86.136154 86.136154 244.348897 244.348898c17.300331 17.300331 15.887064 46.759626-3.143299 65.78999-19.005997 19.030364-48.48966 20.44363-65.789991 3.1433L544.852876 445.608519 458.692355 531.793406a48.733326 48.733326 0 1 1-68.93329 68.908923L183.007929 393.926826a48.733326 48.733326 0 0 1 68.908923-68.908923l241.229965-241.229964A48.733326 48.733326 0 1 1 562.05574 14.879015l206.775503 206.751137a48.733326 48.733326 0 1 1-68.93329 68.908923zM630.98903 221.605785l-68.93329-68.908923-241.229965 241.229964 68.957657 68.908923 241.205598-241.229964zM219.314257 731.600043h584.799914a194.933305 194.933305 0 0 1 194.933304 194.933305v97.466652H24.380952v-97.466652a194.933305 194.933305 0 0 1 194.933305-194.933305z m682.266566 194.933305a97.466652 97.466652 0 0 0-97.466652-97.466653H219.314257a97.466652 97.466652 0 0 0-97.466652 97.466653h779.733218z" p-id="700"></path></svg>