<svg t="1592186929117" class="icon" viewBox="0 0 1080 1024" version="1.1" xmlns="http://www.w3.org/2000/svg" p-id="4834" width="200" height="200"><path d="M568.888889 615.338667L208.497778 975.729778a111.104 111.104 0 0 1-157.127111 0l-3.925334-3.925334a111.104 111.104 0 0 1 0-157.155555l360.391111-360.391111-10.808888-10.808889-7.850667 7.822222a35.555556 35.555556 0 0 1-50.261333 0l-114.716445-114.716444a35.555556 35.555556 0 0 1 0-50.289778L485.831111 24.632889a35.555556 35.555556 0 0 1 50.289778 0L650.808889 139.377778a35.555556 35.555556 0 0 1 0 50.289778l-20.48 20.48 183.096889 183.04 29.098666-29.098667a35.555556 35.555556 0 0 1 50.289778 0l114.688 114.688a35.555556 35.555556 0 0 1 0 50.289778l-261.632 261.632a35.555556 35.555556 0 0 1-50.261333 0l-114.716445-114.716445a35.555556 35.555556 0 0 1-0.796444-49.436444L568.888889 615.338667z m-50.005333-50.005334l-60.501334-60.501333L103.736889 859.477333a42.780444 42.780444 0 1 0 60.501333 60.501334l354.645334-354.645334z m344.263111-120.945777l-201.927111 201.955555a8.903111 8.903111 0 0 0 1.393777 10.752l51.854223 51.854222c3.470222 3.470222 9.102222 3.470222 12.572444 0l198.769778-198.769777a8.903111 8.903111 0 0 0 0-12.572445l-51.854222-51.854222a8.903111 8.903111 0 0 0-10.808889-1.365333z m-283.022223-182.954667l-131.214222 131.214222 182.272 182.272 131.214222-131.214222-182.300444-182.272z m-62.862222-155.079111a8.874667 8.874667 0 0 0-12.572444 0l-198.798222 198.769778a8.903111 8.903111 0 0 0 0 12.572444l51.882666 51.854222c3.470222 3.470222 9.102222 3.470222 12.544 0l198.798222-198.769778a8.903111 8.903111 0 0 0 0-12.572444l-51.854222-51.854222z m-65.336889 738.929778H983.04a82.204444 82.204444 0 0 1 82.204444 82.232888v73.329778c0 4.920889-3.953778 8.903111-8.874666 8.903111H378.595556a8.874667 8.874667 0 0 1-8.874667-8.903111v-73.329778a82.204444 82.204444 0 0 1 82.204444-82.204444z m6.684445 62.236444a19.996444 19.996444 0 0 0-19.996445 19.996444v11.093334c0 4.920889 3.982222 8.903111 8.874667 8.903111h553.329778c4.920889 0 8.903111-3.982222 8.903111-8.874667v-11.093333a19.996444 19.996444 0 0 0-19.996445-20.024889H458.609778z" p-id="4835" fill="#FF6D60"></path></svg>