<svg t="1592387548881" class="icon" viewBox="0 0 1024 1024" version="1.1" xmlns="http://www.w3.org/2000/svg" p-id="8735" width="200" height="200"><path d="M166.4 771.232l691.2 0L857.6 252.768 166.4 252.768 166.4 771.232zM799.936 713.6 224.096 713.6 224.096 310.4l575.84 0L799.936 713.6z" p-id="8736" fill="#FF6D60"></path><path d="M281.12 607.904c12.352 10.016 30.496 8.128 40.576-4.192l0-0.064 29.376-36.16 46.816 63.296c6.208 8.448 16.576 12.8 26.976 11.424 10.4-1.312 19.264-8.256 23.072-18.016l44.512-113.408 64.512 151.808c4.512 10.688 14.976 17.568 26.528 17.568 0.544 0 1.088-0.032 1.632-0.064 12.16-0.672 22.528-8.896 26.016-20.576l61.408-206.4 27.072 55.552c6.944 14.336 24.224 20.288 38.528 13.28 14.304-6.944 20.32-24.192 13.344-38.464l-59.488-122.144c-5.216-10.72-16.448-17.088-28.32-16.128-11.872 0.992-21.888 9.088-25.248 20.512l-59.712 200.64-60.736-143.04c-4.608-10.816-15.2-17.728-26.976-17.568-11.712 0.16-22.144 7.36-26.432 18.304l-51.232 130.592-37.952-51.328c-5.312-7.2-13.568-11.456-22.496-11.68-8.992-0.192-17.44 3.68-23.072 10.656l-52.832 65.024C266.88 579.712 268.736 597.856 281.12 607.904" p-id="8737" fill="#FF6D60"></path></svg>